<mxfile host="app.diagrams.net" modified="2023-02-16T11:29:04.864Z" agent="5.0 (Windows NT 10.0; Win64; x64) AppleWebKit/537.36 (KHTML, like Gecko) Chrome/110.0.0.0 Safari/537.36" etag="WENYF_L_oWF9jOAwX3F5" version="20.8.20" type="github">
  <diagram name="Strona-1" id="CLMY1FzZP6jjgiYLvipj">
    <mxGraphModel dx="1434" dy="764" grid="1" gridSize="10" guides="1" tooltips="1" connect="1" arrows="1" fold="1" page="1" pageScale="1" pageWidth="827" pageHeight="1169" math="0" shadow="0">
      <root>
        <mxCell id="0" />
        <mxCell id="1" parent="0" />
        <mxCell id="iCrwghnV4iTjh0SFgsmy-5" style="edgeStyle=orthogonalEdgeStyle;rounded=0;orthogonalLoop=1;jettySize=auto;html=1;" edge="1" parent="1" source="iCrwghnV4iTjh0SFgsmy-1" target="iCrwghnV4iTjh0SFgsmy-3">
          <mxGeometry relative="1" as="geometry" />
        </mxCell>
        <mxCell id="iCrwghnV4iTjh0SFgsmy-1" value="Start" style="ellipse;whiteSpace=wrap;html=1;" vertex="1" parent="1">
          <mxGeometry x="354" y="30" width="120" height="80" as="geometry" />
        </mxCell>
        <mxCell id="iCrwghnV4iTjh0SFgsmy-2" value="Stop" style="ellipse;whiteSpace=wrap;html=1;" vertex="1" parent="1">
          <mxGeometry x="186" y="500" width="120" height="80" as="geometry" />
        </mxCell>
        <mxCell id="iCrwghnV4iTjh0SFgsmy-6" style="edgeStyle=orthogonalEdgeStyle;rounded=0;orthogonalLoop=1;jettySize=auto;html=1;entryX=0.5;entryY=0;entryDx=0;entryDy=0;" edge="1" parent="1" source="iCrwghnV4iTjh0SFgsmy-3" target="iCrwghnV4iTjh0SFgsmy-4">
          <mxGeometry relative="1" as="geometry" />
        </mxCell>
        <mxCell id="iCrwghnV4iTjh0SFgsmy-3" value="tablica = [3,2,5,4]&lt;br&gt;i = 0;&lt;br&gt;max = najmienjsza liczba&lt;br&gt;min = najwieksza liczba" style="rounded=0;whiteSpace=wrap;html=1;" vertex="1" parent="1">
          <mxGeometry x="306" y="130" width="216" height="100" as="geometry" />
        </mxCell>
        <mxCell id="iCrwghnV4iTjh0SFgsmy-8" style="edgeStyle=orthogonalEdgeStyle;rounded=0;orthogonalLoop=1;jettySize=auto;html=1;entryX=0.5;entryY=0;entryDx=0;entryDy=0;" edge="1" parent="1" source="iCrwghnV4iTjh0SFgsmy-4" target="iCrwghnV4iTjh0SFgsmy-7">
          <mxGeometry relative="1" as="geometry" />
        </mxCell>
        <mxCell id="iCrwghnV4iTjh0SFgsmy-15" style="edgeStyle=orthogonalEdgeStyle;rounded=0;orthogonalLoop=1;jettySize=auto;html=1;entryX=0;entryY=0.5;entryDx=0;entryDy=0;" edge="1" parent="1" source="iCrwghnV4iTjh0SFgsmy-4" target="iCrwghnV4iTjh0SFgsmy-13">
          <mxGeometry relative="1" as="geometry" />
        </mxCell>
        <mxCell id="iCrwghnV4iTjh0SFgsmy-4" value="i &amp;lt; tablica dlugosc" style="rhombus;whiteSpace=wrap;html=1;" vertex="1" parent="1">
          <mxGeometry x="356" y="260" width="116" height="120" as="geometry" />
        </mxCell>
        <mxCell id="iCrwghnV4iTjh0SFgsmy-9" style="edgeStyle=orthogonalEdgeStyle;rounded=0;orthogonalLoop=1;jettySize=auto;html=1;" edge="1" parent="1" source="iCrwghnV4iTjh0SFgsmy-7" target="iCrwghnV4iTjh0SFgsmy-2">
          <mxGeometry relative="1" as="geometry" />
        </mxCell>
        <mxCell id="iCrwghnV4iTjh0SFgsmy-7" value="Pokaz max i min" style="rounded=0;whiteSpace=wrap;html=1;" vertex="1" parent="1">
          <mxGeometry x="186" y="400" width="120" height="60" as="geometry" />
        </mxCell>
        <mxCell id="iCrwghnV4iTjh0SFgsmy-10" value="Nie" style="text;html=1;align=center;verticalAlign=middle;resizable=0;points=[];autosize=1;strokeColor=none;fillColor=none;" vertex="1" parent="1">
          <mxGeometry x="306" y="285" width="40" height="30" as="geometry" />
        </mxCell>
        <mxCell id="iCrwghnV4iTjh0SFgsmy-33" style="edgeStyle=orthogonalEdgeStyle;rounded=0;orthogonalLoop=1;jettySize=auto;html=1;entryX=0.5;entryY=1;entryDx=0;entryDy=0;" edge="1" parent="1" source="iCrwghnV4iTjh0SFgsmy-12" target="iCrwghnV4iTjh0SFgsmy-4">
          <mxGeometry relative="1" as="geometry" />
        </mxCell>
        <mxCell id="iCrwghnV4iTjh0SFgsmy-12" value="i++" style="rounded=0;whiteSpace=wrap;html=1;" vertex="1" parent="1">
          <mxGeometry x="434" y="525" width="120" height="60" as="geometry" />
        </mxCell>
        <mxCell id="iCrwghnV4iTjh0SFgsmy-18" style="edgeStyle=orthogonalEdgeStyle;rounded=0;orthogonalLoop=1;jettySize=auto;html=1;entryX=0.5;entryY=0;entryDx=0;entryDy=0;" edge="1" parent="1" source="iCrwghnV4iTjh0SFgsmy-13" target="iCrwghnV4iTjh0SFgsmy-14">
          <mxGeometry relative="1" as="geometry" />
        </mxCell>
        <mxCell id="iCrwghnV4iTjh0SFgsmy-21" style="edgeStyle=orthogonalEdgeStyle;rounded=0;orthogonalLoop=1;jettySize=auto;html=1;entryX=0;entryY=0.5;entryDx=0;entryDy=0;" edge="1" parent="1" source="iCrwghnV4iTjh0SFgsmy-13" target="iCrwghnV4iTjh0SFgsmy-20">
          <mxGeometry relative="1" as="geometry" />
        </mxCell>
        <mxCell id="iCrwghnV4iTjh0SFgsmy-13" value="tablica[i] &amp;gt; max" style="rhombus;whiteSpace=wrap;html=1;" vertex="1" parent="1">
          <mxGeometry x="552.5" y="265" width="115" height="110" as="geometry" />
        </mxCell>
        <mxCell id="iCrwghnV4iTjh0SFgsmy-19" style="edgeStyle=orthogonalEdgeStyle;rounded=0;orthogonalLoop=1;jettySize=auto;html=1;entryX=1;entryY=0.5;entryDx=0;entryDy=0;" edge="1" parent="1" source="iCrwghnV4iTjh0SFgsmy-14" target="iCrwghnV4iTjh0SFgsmy-12">
          <mxGeometry relative="1" as="geometry" />
        </mxCell>
        <mxCell id="iCrwghnV4iTjh0SFgsmy-24" style="edgeStyle=orthogonalEdgeStyle;rounded=0;orthogonalLoop=1;jettySize=auto;html=1;startArrow=none;" edge="1" parent="1" target="iCrwghnV4iTjh0SFgsmy-23">
          <mxGeometry relative="1" as="geometry">
            <mxPoint x="700" y="470" as="sourcePoint" />
            <Array as="points">
              <mxPoint x="700" y="470" />
            </Array>
          </mxGeometry>
        </mxCell>
        <mxCell id="iCrwghnV4iTjh0SFgsmy-31" style="edgeStyle=orthogonalEdgeStyle;rounded=0;orthogonalLoop=1;jettySize=auto;html=1;entryX=0;entryY=0.5;entryDx=0;entryDy=0;" edge="1" parent="1" source="iCrwghnV4iTjh0SFgsmy-14" target="iCrwghnV4iTjh0SFgsmy-23">
          <mxGeometry relative="1" as="geometry" />
        </mxCell>
        <mxCell id="iCrwghnV4iTjh0SFgsmy-14" value="tablica[i] &amp;lt; max" style="rhombus;whiteSpace=wrap;html=1;" vertex="1" parent="1">
          <mxGeometry x="550" y="410" width="120" height="120" as="geometry" />
        </mxCell>
        <mxCell id="iCrwghnV4iTjh0SFgsmy-16" value="Tak" style="text;html=1;align=center;verticalAlign=middle;resizable=0;points=[];autosize=1;strokeColor=none;fillColor=none;" vertex="1" parent="1">
          <mxGeometry x="474" y="285" width="40" height="30" as="geometry" />
        </mxCell>
        <mxCell id="iCrwghnV4iTjh0SFgsmy-22" style="edgeStyle=orthogonalEdgeStyle;rounded=0;orthogonalLoop=1;jettySize=auto;html=1;" edge="1" parent="1" source="iCrwghnV4iTjh0SFgsmy-20">
          <mxGeometry relative="1" as="geometry">
            <mxPoint x="610" y="400" as="targetPoint" />
            <Array as="points">
              <mxPoint x="760" y="380" />
              <mxPoint x="610" y="380" />
            </Array>
          </mxGeometry>
        </mxCell>
        <mxCell id="iCrwghnV4iTjh0SFgsmy-20" value="max = tablica[i]" style="whiteSpace=wrap;html=1;" vertex="1" parent="1">
          <mxGeometry x="700" y="290" width="120" height="60" as="geometry" />
        </mxCell>
        <mxCell id="iCrwghnV4iTjh0SFgsmy-25" style="edgeStyle=orthogonalEdgeStyle;rounded=0;orthogonalLoop=1;jettySize=auto;html=1;" edge="1" parent="1" source="iCrwghnV4iTjh0SFgsmy-23">
          <mxGeometry relative="1" as="geometry">
            <mxPoint x="610" y="550" as="targetPoint" />
            <Array as="points">
              <mxPoint x="767" y="540" />
              <mxPoint x="610" y="540" />
            </Array>
          </mxGeometry>
        </mxCell>
        <mxCell id="iCrwghnV4iTjh0SFgsmy-23" value="min = tablica[i]" style="whiteSpace=wrap;html=1;" vertex="1" parent="1">
          <mxGeometry x="707" y="440" width="120" height="60" as="geometry" />
        </mxCell>
        <mxCell id="iCrwghnV4iTjh0SFgsmy-26" value="Tak" style="text;html=1;align=center;verticalAlign=middle;resizable=0;points=[];autosize=1;strokeColor=none;fillColor=none;" vertex="1" parent="1">
          <mxGeometry x="660" y="300" width="40" height="30" as="geometry" />
        </mxCell>
        <mxCell id="iCrwghnV4iTjh0SFgsmy-29" value="Nie" style="text;html=1;align=center;verticalAlign=middle;resizable=0;points=[];autosize=1;strokeColor=none;fillColor=none;" vertex="1" parent="1">
          <mxGeometry x="570" y="510" width="40" height="30" as="geometry" />
        </mxCell>
        <mxCell id="iCrwghnV4iTjh0SFgsmy-30" value="Nie" style="text;html=1;align=center;verticalAlign=middle;resizable=0;points=[];autosize=1;strokeColor=none;fillColor=none;" vertex="1" parent="1">
          <mxGeometry x="570" y="370" width="40" height="30" as="geometry" />
        </mxCell>
        <mxCell id="iCrwghnV4iTjh0SFgsmy-32" value="Tak" style="text;html=1;align=center;verticalAlign=middle;resizable=0;points=[];autosize=1;strokeColor=none;fillColor=none;" vertex="1" parent="1">
          <mxGeometry x="660" y="440" width="40" height="30" as="geometry" />
        </mxCell>
      </root>
    </mxGraphModel>
  </diagram>
</mxfile>
